<?xml version="1.0" encoding="UTF-8"?>
<!DOCTYPE svg PUBLIC "-//W3C//DTD SVG 1.1//EN" "http://www.w3.org/Graphics/SVG/1.1/DTD/svg11.dtd">
<!-- Creator: CorelDRAW 2018 (64-Bit) -->
<svg xmlns="http://www.w3.org/2000/svg" xml:space="preserve" width="100px" height="142px" version="1.1" style="shape-rendering:geometricPrecision; text-rendering:geometricPrecision; image-rendering:optimizeQuality; fill-rule:evenodd; clip-rule:evenodd"
viewBox="0 0 36.37 51.58"
 xmlns:xlink="http://www.w3.org/1999/xlink">
 <defs>
  <style type="text/css">
   <![CDATA[
    .fil0 {fill:#FFD109}
    .fil2 {fill:white}
    .fil1 {fill:#D1C510;fill-rule:nonzero}
   ]]>
  </style>
 </defs>
 <g id="Слой_x0020_1">
  <metadata id="CorelCorpID_0Corel-Layer"/>
  <g id="_1115961168">
   <path class="fil0" d="M18.19 0.18c-9.93,0 -18.01,8.08 -18.01,18.01 0,3.35 0.93,6.62 2.69,9.46l14.29 23.03c0.59,0.96 1.99,0.95 2.57,-0.02l13.92 -23.25c1.66,-2.78 2.54,-5.97 2.54,-9.22 0,-9.93 -8.08,-18.01 -18,-18.01z"/>
   <path class="fil1" d="M18.19 0.37c-4.92,0 -9.37,1.99 -12.6,5.22 -3.23,3.23 -5.22,7.68 -5.22,12.6 0,1.66 0.23,3.3 0.67,4.87 0.45,1.58 1.11,3.09 1.98,4.5l14.3 23.03c0.11,0.19 0.27,0.33 0.44,0.44 0.21,0.12 0.45,0.18 0.69,0.18 0.24,0 0.48,-0.07 0.68,-0.2 0.17,-0.1 0.32,-0.25 0.44,-0.44l13.93 -23.25c0.82,-1.38 1.45,-2.86 1.87,-4.39 0.42,-1.54 0.64,-3.13 0.64,-4.74 0,-4.92 -2,-9.37 -5.23,-12.6 -3.22,-3.23 -7.68,-5.22 -12.59,-5.22zm-12.86 4.96c3.3,-3.29 7.84,-5.33 12.86,-5.33 5.01,0 9.56,2.04 12.85,5.33 3.29,3.3 5.33,7.84 5.33,12.86 0,1.64 -0.22,3.26 -0.65,4.83 -0.43,1.57 -1.07,3.08 -1.91,4.48l-13.93 23.26c-0.14,0.24 -0.34,0.43 -0.55,0.56 -0.27,0.17 -0.57,0.25 -0.88,0.26 -0.3,0 -0.61,-0.08 -0.88,-0.24 -0.22,-0.13 -0.41,-0.32 -0.56,-0.56l-14.3 -23.03c-0.88,-1.44 -1.56,-2.98 -2.02,-4.59 -0.46,-1.61 -0.69,-3.28 -0.69,-4.97 0,-5.02 2.04,-9.56 5.33,-12.86z"/>
   <path class="fil2" d="M18.77 7.45c-6.12,0 -11.1,4.98 -11.1,11.09 0,6.12 4.98,11.1 11.1,11.1 6.11,0 11.09,-4.98 11.09,-11.1 0,-6.11 -4.98,-11.09 -11.09,-11.09zm0 18.82c-4.27,0 -7.73,-3.47 -7.73,-7.73 0,-4.26 3.47,-7.72 7.73,-7.72 4.26,0 7.72,3.46 7.72,7.72 0,4.27 -3.46,7.73 -7.72,7.73zm4.46 -8.32c0.02,0.19 0.04,0.39 0.04,0.59 0,2.49 -2.02,4.51 -4.5,4.51 -2.49,0 -4.51,-2.02 -4.51,-4.51 0,-2.48 2.02,-4.5 4.51,-4.5 0.2,0 0.4,0.01 0.59,0.04 -0.43,0.49 -0.7,1.13 -0.7,1.83 0,1.51 1.23,2.74 2.74,2.74 0.7,0 1.35,-0.27 1.83,-0.7z"/>
  </g>
 </g>
</svg>
