<?xml version="1.0" encoding="UTF-8"?>
<!DOCTYPE svg PUBLIC "-//W3C//DTD SVG 1.1//EN" "http://www.w3.org/Graphics/SVG/1.1/DTD/svg11.dtd">
<!-- Creator: CorelDRAW 2018 (64-Bit) -->
<svg xmlns="http://www.w3.org/2000/svg" xml:space="preserve" width="100px" height="142px" version="1.1" style="shape-rendering:geometricPrecision; text-rendering:geometricPrecision; image-rendering:optimizeQuality; fill-rule:evenodd; clip-rule:evenodd"
viewBox="0 0 9.52 13.5"
 xmlns:xlink="http://www.w3.org/1999/xlink">
 <defs>
  <style type="text/css">
   <![CDATA[
    .fil2 {fill:#FEFEFE}
    .fil0 {fill:#6699FF}
    .fil1 {fill:#3063C9;fill-rule:nonzero}
   ]]>
  </style>
 </defs>
 <g id="Слой_x0020_1">
  <metadata id="CorelCorpID_0Corel-Layer"/>
  <g id="_887020064">
   <path class="fil0" d="M4.76 0.05c-2.6,0 -4.71,2.11 -4.71,4.71 0,0.88 0.24,1.73 0.7,2.48l3.74 6.02c0.16,0.25 0.52,0.25 0.67,0l3.65 -6.09c0.43,-0.73 0.66,-1.56 0.66,-2.41 0,-2.6 -2.11,-4.71 -4.71,-4.71z"/>
   <path class="fil1" d="M4.76 0.1c-1.29,0 -2.45,0.52 -3.3,1.36 -0.84,0.85 -1.36,2.01 -1.36,3.3 0,0.43 0.06,0.86 0.17,1.27 0.12,0.42 0.29,0.81 0.52,1.18l3.74 6.03c0.03,0.05 0.07,0.08 0.12,0.11 0.05,0.03 0.11,0.05 0.18,0.05 0.06,0 0.12,-0.02 0.18,-0.05 0.04,-0.03 0.08,-0.07 0.11,-0.12l3.64 -6.08c0.22,-0.36 0.38,-0.75 0.49,-1.15 0.11,-0.4 0.17,-0.82 0.17,-1.24 0,-1.29 -0.52,-2.45 -1.37,-3.3 -0.84,-0.84 -2.01,-1.36 -3.29,-1.36zm-3.36 1.3c0.86,-0.87 2.05,-1.4 3.36,-1.4 1.31,0 2.5,0.53 3.36,1.4 0.86,0.86 1.4,2.05 1.4,3.36 0,0.43 -0.06,0.85 -0.17,1.26 -0.12,0.41 -0.28,0.81 -0.5,1.18l-3.65 6.08c-0.04,0.06 -0.09,0.11 -0.14,0.15 -0.07,0.04 -0.15,0.06 -0.23,0.07 -0.08,0 -0.16,-0.02 -0.23,-0.07 -0.06,-0.03 -0.11,-0.08 -0.15,-0.14l-3.74 -6.03c-0.23,-0.37 -0.41,-0.78 -0.53,-1.2 -0.12,-0.42 -0.18,-0.86 -0.18,-1.3 0,-1.31 0.53,-2.5 1.4,-3.36z"/>
   <path class="fil2" d="M8.07 4.68l-0.31 0c-0.12,-1.42 -1.25,-2.55 -2.66,-2.67l0 -0.3c0,-0.14 -0.12,-0.26 -0.26,-0.26 -0.14,0 -0.25,0.12 -0.25,0.26l0 0.3c-1.42,0.12 -2.54,1.25 -2.67,2.67l-0.3 0c-0.14,0 -0.25,0.11 -0.25,0.25 0,0.14 0.11,0.25 0.25,0.25l0.3 0c0.13,1.42 1.25,2.55 2.67,2.67l0 0.3c0,0.14 0.11,0.26 0.25,0.26 0.14,0 0.26,-0.12 0.26,-0.26l0 -0.3c1.41,-0.12 2.54,-1.25 2.66,-2.67l0.31 0c0.14,0 0.25,-0.11 0.25,-0.25 0,-0.14 -0.11,-0.25 -0.25,-0.25zm-3.23 -1.2c-0.8,0 -1.45,0.65 -1.45,1.45 0,0.8 0.65,1.45 1.45,1.45 0.81,0 1.46,-0.65 1.46,-1.45 0,-0.8 -0.65,-1.45 -1.46,-1.45zm2.13 1.7l0.3 0c-0.12,1.15 -1.03,2.06 -2.17,2.18l0 -0.31c0,-0.14 -0.12,-0.25 -0.26,-0.25 -0.14,0 -0.25,0.11 -0.25,0.25l0 0.31c-1.15,-0.12 -2.06,-1.03 -2.17,-2.18l0.3 0c0.14,0 0.25,-0.11 0.25,-0.25 0,-0.14 -0.11,-0.25 -0.25,-0.25l-0.3 0c0.11,-1.15 1.02,-2.06 2.17,-2.18l0 0.31c0,0.14 0.11,0.25 0.25,0.25 0.14,0 0.26,-0.11 0.26,-0.25l0 -0.31c1.14,0.12 2.05,1.03 2.17,2.18l-0.3 0c-0.14,0 -0.26,0.11 -0.26,0.25 0,0.14 0.12,0.25 0.26,0.25z"/>
  </g>
 </g>
</svg>
