<?xml version="1.0" encoding="UTF-8"?>
<!DOCTYPE svg PUBLIC "-//W3C//DTD SVG 1.1//EN" "http://www.w3.org/Graphics/SVG/1.1/DTD/svg11.dtd">
<!-- Creator: CorelDRAW 2018 (64-Bit) -->
<svg xmlns="http://www.w3.org/2000/svg" xml:space="preserve" width="100px" height="142px" version="1.1" style="shape-rendering:geometricPrecision; text-rendering:geometricPrecision; image-rendering:optimizeQuality; fill-rule:evenodd; clip-rule:evenodd"
viewBox="0 0 20 28.35"
 xmlns:xlink="http://www.w3.org/1999/xlink">
 <defs>
  <style type="text/css">
   <![CDATA[
    .fil2 {fill:#FEFEFE}
    .fil0 {fill:#1CAD1C}
    .fil1 {fill:#0E7D0E;fill-rule:nonzero}
   ]]>
  </style>
 </defs>
 <g id="Слой_x0020_1">
  <metadata id="CorelCorpID_0Corel-Layer"/>
  <g id="_878484480">
   <path class="fil0" d="M10 0.1c-5.46,0 -9.9,4.44 -9.9,9.9 0,1.84 0.51,3.64 1.48,5.2l7.85 12.66c0.33,0.53 1.1,0.52 1.41,-0.01l7.66 -12.78c0.91,-1.53 1.4,-3.28 1.4,-5.07 0,-5.46 -4.44,-9.9 -9.9,-9.9z"/>
   <path class="fil1" d="M10 0.2c-2.7,0 -5.15,1.1 -6.93,2.87 -1.77,1.78 -2.87,4.23 -2.87,6.93 0,0.91 0.13,1.81 0.37,2.68 0.25,0.87 0.61,1.7 1.09,2.47l7.86 12.66c0.06,0.11 0.15,0.19 0.24,0.24 0.12,0.07 0.25,0.1 0.38,0.1 0.13,0 0.26,-0.03 0.38,-0.1 0.09,-0.06 0.18,-0.14 0.24,-0.25l7.65 -12.78c0.46,-0.76 0.8,-1.57 1.03,-2.42 0.24,-0.84 0.36,-1.72 0.36,-2.6 0,-2.7 -1.1,-5.15 -2.88,-6.93 -1.77,-1.77 -4.22,-2.87 -6.92,-2.87zm-7.07 2.73c1.81,-1.81 4.31,-2.93 7.07,-2.93 2.75,0 5.25,1.12 7.06,2.93 1.82,1.81 2.94,4.31 2.94,7.07 0,0.9 -0.13,1.79 -0.36,2.66 -0.24,0.86 -0.59,1.69 -1.05,2.46l-7.66 12.78c-0.08,0.14 -0.19,0.24 -0.31,0.32 -0.14,0.09 -0.31,0.13 -0.48,0.13 -0.16,0.01 -0.33,-0.04 -0.48,-0.13 -0.12,-0.07 -0.23,-0.17 -0.31,-0.3l-7.86 -12.66c-0.49,-0.79 -0.86,-1.64 -1.11,-2.53 -0.25,-0.88 -0.38,-1.8 -0.38,-2.73 0,-2.76 1.12,-5.26 2.93,-7.07z"/>
   <path class="fil2" d="M10 5.38c-2.82,0 -5.38,1.54 -7.27,4.05 -0.15,0.2 -0.15,0.49 0,0.7 1.89,2.5 4.45,4.05 7.27,4.05 2.82,0 5.37,-1.55 7.26,-4.05 0.16,-0.21 0.16,-0.49 0,-0.7 -1.89,-2.51 -4.44,-4.05 -7.26,-4.05zm0.2 7.5c-1.87,0.11 -3.42,-1.43 -3.3,-3.3 0.1,-1.55 1.35,-2.8 2.9,-2.9 1.87,-0.12 3.41,1.43 3.3,3.3 -0.1,1.54 -1.36,2.8 -2.9,2.9zm-0.09 -1.43c-1.01,0.06 -1.84,-0.77 -1.78,-1.78 0.05,-0.83 0.73,-1.51 1.56,-1.56 1.01,-0.06 1.84,0.77 1.78,1.77 -0.06,0.84 -0.73,1.51 -1.56,1.57z"/>
  </g>
 </g>
</svg>
