<?xml version="1.0" encoding="UTF-8"?>
<!DOCTYPE svg PUBLIC "-//W3C//DTD SVG 1.1//EN" "http://www.w3.org/Graphics/SVG/1.1/DTD/svg11.dtd">
<!-- Creator: CorelDRAW 2018 (64-Bit) -->
<svg xmlns="http://www.w3.org/2000/svg" xml:space="preserve" width="2133px" height="2133px" version="1.1" style="shape-rendering:geometricPrecision; text-rendering:geometricPrecision; image-rendering:optimizeQuality; fill-rule:evenodd; clip-rule:evenodd"
viewBox="0 0 185.52 185.52"
 xmlns:xlink="http://www.w3.org/1999/xlink">
 <defs>
  <style type="text/css">
   <![CDATA[
    .fil0 {fill:#E6E6E6}
   ]]>
  </style>
 </defs>
 <g id="Слой_x0020_1">
  <metadata id="CorelCorpID_0Corel-Layer"/>
  <g id="_640348032">
   <path class="fil0" d="M40.43 139.41c-1.51,0 -2.74,1.23 -2.74,2.75l0 10.61c0,1.51 1.23,2.74 2.74,2.74l104.65 0c1.52,0 2.75,-1.23 2.75,-2.74l0 -10.61c0,-1.52 -1.23,-2.75 -2.75,-2.75 -1.51,0 -2.74,1.23 -2.74,2.75l0 7.86 -99.16 0 0 -7.86c0,-1.52 -1.23,-2.75 -2.75,-2.75zm0 0z"/>
   <path class="fil0" d="M153.5 0l-29.27 0c-1.52,0 -2.75,1.23 -2.75,2.74l0 14.64c0,1.52 1.23,2.75 2.75,2.75l29.27 0c6.56,0 11.89,5.33 11.89,11.89l0 29.27c0,1.52 1.23,2.74 2.75,2.74l14.63 0c1.52,0 2.75,-1.22 2.75,-2.74l0 -29.27c0,-17.66 -14.37,-32.02 -32.02,-32.02zm26.53 58.55l-9.15 0 0 -26.53c0,-9.59 -7.8,-17.38 -17.38,-17.38l-26.53 0 0 -9.15 26.53 0c14.63,0 26.53,11.9 26.53,26.53l0 26.53zm0 0z"/>
   <path class="fil0" d="M2.74 64.03l14.64 0c1.52,0 2.75,-1.22 2.75,-2.74l0 -29.27c0,-6.56 5.33,-11.89 11.89,-11.89l29.27 0c1.52,0 2.74,-1.23 2.74,-2.75l0 -14.64c0,-1.51 -1.22,-2.74 -2.74,-2.74l-29.27 0c-17.66,0 -32.02,14.36 -32.02,32.02l0 29.27c0,1.52 1.23,2.74 2.74,2.74zm2.75 -32.01c0,-14.63 11.9,-26.53 26.53,-26.53l26.53 0 0 9.15 -26.53 0c-9.59,0 -17.38,7.79 -17.38,17.38l0 26.53 -9.15 0 0 -26.53zm0 0z"/>
   <path class="fil0" d="M61.29 165.39l-29.27 0c-6.56,0 -11.89,-5.33 -11.89,-11.89l0 -29.27c0,-1.52 -1.23,-2.75 -2.75,-2.75l-14.64 0c-1.51,0 -2.74,1.23 -2.74,2.75l0 29.27c0,17.65 14.36,32.02 32.02,32.02l29.27 0c1.52,0 2.74,-1.23 2.74,-2.75l0 -14.63c0,-1.52 -1.22,-2.75 -2.74,-2.75zm-2.74 14.64l-26.53 0c-14.63,0 -26.53,-11.9 -26.53,-26.53l0 -26.53 9.15 0 0 26.53c0,9.58 7.79,17.38 17.38,17.38l26.53 0 0 9.15zm0 0z"/>
   <path class="fil0" d="M182.77 121.48l-14.63 0c-1.52,0 -2.75,1.23 -2.75,2.75l0 29.27c0,6.56 -5.33,11.89 -11.89,11.89l-29.27 0c-1.52,0 -2.75,1.23 -2.75,2.75l0 14.63c0,1.52 1.23,2.75 2.75,2.75l29.27 0c17.65,0 32.02,-14.37 32.02,-32.02l0 -29.27c0,-1.52 -1.23,-2.75 -2.75,-2.75zm-2.74 32.02c0,14.63 -11.9,26.53 -26.53,26.53l-26.53 0 0 -9.15 26.53 0c9.58,0 17.38,-7.8 17.38,-17.38l0 -26.53 9.15 0 0 26.53zm0 0z"/>
   <path class="fil0" d="M59.13 68.83c0,7.36 2.38,14.18 6.41,19.72l-3.15 0c-13.62,0 -24.7,11.08 -24.7,24.7l0 16.1c0,1.52 1.23,2.74 2.74,2.74 1.52,0 2.75,-1.22 2.75,-2.74l0 -16.1c0,-10.59 8.61,-19.21 19.21,-19.21l8.14 0c5.93,5.23 13.71,8.42 22.23,8.42 8.51,0 16.29,-3.19 22.22,-8.42l8.15 0c10.59,0 19.21,8.62 19.21,19.21l0 16.1c0,1.52 1.23,2.74 2.74,2.74 1.52,0 2.75,-1.22 2.75,-2.74l0 -16.1c0,-13.62 -11.08,-24.7 -24.7,-24.7l-3.15 0c4.02,-5.54 6.4,-12.36 6.4,-19.72l0 -12.52c0,-18.54 -15.08,-33.62 -33.62,-33.62 -6.72,0 -13.21,1.97 -18.76,5.71 -1.26,0.85 -1.59,2.55 -0.74,3.81 0.84,1.26 2.55,1.59 3.8,0.74 4.65,-3.12 10.08,-4.77 15.7,-4.77 15.51,0 28.14,12.62 28.14,28.13l0 12.52c0,15.51 -12.63,28.14 -28.14,28.14 -15.52,0 -28.14,-12.63 -28.14,-28.14l0 -12.52c0,-5.2 1.43,-10.27 4.13,-14.68 0.79,-1.3 0.39,-2.99 -0.9,-3.78 -1.3,-0.79 -2.98,-0.38 -3.78,0.91 -3.23,5.27 -4.94,11.34 -4.94,17.55l0 12.52 0 0zm0 0z"/>
  </g>
 </g>
</svg>
