<?xml version="1.0" encoding="UTF-8"?>
<!DOCTYPE svg PUBLIC "-//W3C//DTD SVG 1.1//EN" "http://www.w3.org/Graphics/SVG/1.1/DTD/svg11.dtd">
<!-- Creator: CorelDRAW 2018 (64-Bit) -->
<svg xmlns="http://www.w3.org/2000/svg" xml:space="preserve" width="100px" height="142px" version="1.1" style="shape-rendering:geometricPrecision; text-rendering:geometricPrecision; image-rendering:optimizeQuality; fill-rule:evenodd; clip-rule:evenodd"
viewBox="0 0 12.55 17.8"
 xmlns:xlink="http://www.w3.org/1999/xlink">
 <defs>
  <style type="text/css">
   <![CDATA[
    .fil2 {fill:#FEFEFE}
    .fil0 {fill:red}
    .fil1 {fill:#991C1C;fill-rule:nonzero}
   ]]>
  </style>
 </defs>
 <g id="Слой_x0020_1">
  <metadata id="CorelCorpID_0Corel-Layer"/>
  <g id="_709005920">
   <path class="fil0" d="M6.28 0.06c-3.43,0 -6.22,2.79 -6.22,6.22 0,1.15 0.32,2.28 0.93,3.26l4.93 7.95c0.21,0.33 0.69,0.33 0.89,-0.01l4.8 -8.02c0.58,-0.96 0.88,-2.06 0.88,-3.18 0,-3.43 -2.79,-6.22 -6.21,-6.22z"/>
   <path class="fil1" d="M6.28 0.13c-1.7,0 -3.24,0.69 -4.35,1.8 -1.11,1.11 -1.8,2.65 -1.8,4.35 0,0.57 0.08,1.14 0.23,1.68 0.15,0.54 0.38,1.06 0.68,1.55l4.94 7.95c0.04,0.06 0.09,0.11 0.15,0.15 0.07,0.04 0.15,0.06 0.24,0.06 0.08,0 0.16,-0.02 0.23,-0.07 0.06,-0.03 0.11,-0.08 0.15,-0.15l4.81 -8.02c0.28,-0.48 0.5,-0.99 0.65,-1.52 0.14,-0.53 0.22,-1.08 0.22,-1.63 0,-1.7 -0.69,-3.24 -1.81,-4.35 -1.11,-1.11 -2.65,-1.8 -4.34,-1.8zm-4.44 1.71c1.14,-1.14 2.71,-1.84 4.44,-1.84 1.73,0 3.3,0.7 4.43,1.84 1.14,1.14 1.84,2.71 1.84,4.44 0,0.56 -0.07,1.12 -0.22,1.66 -0.15,0.55 -0.37,1.07 -0.66,1.55l-4.81 8.03c-0.05,0.08 -0.12,0.14 -0.19,0.19 -0.09,0.06 -0.2,0.09 -0.3,0.09 -0.11,0 -0.21,-0.03 -0.31,-0.08 -0.07,-0.05 -0.14,-0.11 -0.19,-0.2l-4.93 -7.94c-0.31,-0.5 -0.54,-1.03 -0.7,-1.59 -0.16,-0.55 -0.24,-1.13 -0.24,-1.71 0,-1.73 0.7,-3.3 1.84,-4.44z"/>
   <path class="fil2" d="M9.52 7.47c-0.1,-1.27 -0.7,-2.08 -1.22,-2.78 -0.49,-0.66 -0.91,-1.22 -0.91,-2.06 0,-0.06 -0.03,-0.13 -0.09,-0.16 -0.06,-0.03 -0.14,-0.02 -0.19,0.02 -0.79,0.56 -1.45,1.51 -1.68,2.42 -0.16,0.63 -0.18,1.34 -0.18,1.81 -0.73,-0.15 -0.89,-1.24 -0.9,-1.25 0,-0.06 -0.04,-0.11 -0.09,-0.14 -0.05,-0.02 -0.11,-0.03 -0.16,0 -0.04,0.02 -0.94,0.48 -0.99,2.3 0,0.06 0,0.12 0,0.18 0,1.78 1.44,3.22 3.21,3.22 0,0 0.01,0 0.01,0 0,0 0,0 0,0 1.77,-0.01 3.21,-1.45 3.21,-3.22 0,-0.09 -0.02,-0.34 -0.02,-0.34zm-3.2 3.2c-0.59,0 -1.07,-0.51 -1.07,-1.14 0,-0.02 0,-0.04 0,-0.07 0.01,-0.27 0.06,-0.45 0.11,-0.57 0.11,0.23 0.29,0.43 0.59,0.43 0.1,0 0.18,-0.08 0.18,-0.18 0,-0.25 0.01,-0.55 0.07,-0.81 0.06,-0.24 0.19,-0.49 0.36,-0.69 0.08,0.26 0.23,0.47 0.37,0.68 0.21,0.29 0.42,0.6 0.46,1.12 0,0.03 0,0.06 0,0.09 0,0.63 -0.48,1.14 -1.07,1.14z"/>
  </g>
 </g>
</svg>
