<?xml version="1.0" encoding="UTF-8"?>
<!DOCTYPE svg PUBLIC "-//W3C//DTD SVG 1.1//EN" "http://www.w3.org/Graphics/SVG/1.1/DTD/svg11.dtd">
<!-- Creator: CorelDRAW 2018 (64-Bit) -->
<svg xmlns="http://www.w3.org/2000/svg" xml:space="preserve" width="142px" height="201px" version="1.1" style="shape-rendering:geometricPrecision; text-rendering:geometricPrecision; image-rendering:optimizeQuality; fill-rule:evenodd; clip-rule:evenodd"
viewBox="0 0 13.51 19.16"
 xmlns:xlink="http://www.w3.org/1999/xlink">
 <defs>
  <style type="text/css">
   <![CDATA[
    .str0 {stroke:#3063C9;stroke-width:0.14;stroke-miterlimit:22.9256}
    .fil1 {fill:#FEFEFE}
    .fil0 {fill:#6699FF}
   ]]>
  </style>
 </defs>
 <g id="Слой_x0020_1">
  <metadata id="CorelCorpID_0Corel-Layer"/>
  <g id="_884518368">
   <path class="fil0 str0" d="M6.76 0.07c-3.69,0 -6.69,3 -6.69,6.69 0,1.24 0.34,2.46 1,3.51l5.31 8.56c0.22,0.36 0.74,0.35 0.95,-0.01l5.17 -8.64c0.62,-1.03 0.95,-2.21 0.95,-3.42 0,-3.69 -3,-6.69 -6.69,-6.69z"/>
   <path class="fil1" d="M11.46 6.64l-0.44 0c-0.17,-2.01 -1.77,-3.61 -3.78,-3.79l0 -0.43c0,-0.2 -0.16,-0.36 -0.36,-0.36 -0.2,0 -0.36,0.16 -0.36,0.36l0 0.43c-2.01,0.18 -3.62,1.78 -3.79,3.79l-0.43 0c-0.2,0 -0.36,0.16 -0.36,0.36 0,0.2 0.16,0.36 0.36,0.36l0.43 0c0.17,2.01 1.78,3.61 3.79,3.79l0 0.43c0,0.2 0.16,0.36 0.36,0.36 0.2,0 0.36,-0.16 0.36,-0.36l0 -0.43c2.01,-0.18 3.61,-1.78 3.78,-3.79l0.44 0c0.19,0 0.36,-0.16 0.36,-0.36 0,-0.2 -0.17,-0.36 -0.36,-0.36zm-4.58 -1.7c-1.14,0 -2.07,0.92 -2.07,2.06 0,1.14 0.93,2.07 2.07,2.07 1.14,0 2.06,-0.93 2.06,-2.07 0,-1.14 -0.92,-2.06 -2.06,-2.06zm3.01 2.42l0.43 0c-0.16,1.63 -1.46,2.92 -3.08,3.09l0 -0.43c0,-0.2 -0.16,-0.36 -0.36,-0.36 -0.2,0 -0.36,0.16 -0.36,0.36l0 0.43c-1.63,-0.17 -2.92,-1.46 -3.09,-3.09l0.43 0c0.2,0 0.36,-0.16 0.36,-0.36 0,-0.2 -0.16,-0.36 -0.36,-0.36l-0.43 0c0.17,-1.63 1.46,-2.92 3.09,-3.09l0 0.43c0,0.2 0.16,0.37 0.36,0.37 0.2,0 0.36,-0.17 0.36,-0.37l0 -0.43c1.62,0.17 2.92,1.46 3.08,3.09l-0.43 0c-0.2,0 -0.36,0.16 -0.36,0.36 0,0.2 0.16,0.36 0.36,0.36z"/>
  </g>
 </g>
</svg>
